<?xml version="1.0" encoding="UTF-8" standalone="no"?>
<svg
   xmlns:dc="http://purl.org/dc/elements/1.1/"
   xmlns:cc="http://creativecommons.org/ns#"
   xmlns:rdf="http://www.w3.org/1999/02/22-rdf-syntax-ns#"
   xmlns:svg="http://www.w3.org/2000/svg"
   xmlns="http://www.w3.org/2000/svg"
   xmlns:sodipodi="http://sodipodi.sourceforge.net/DTD/sodipodi-0.dtd"
   xmlns:inkscape="http://www.inkscape.org/namespaces/inkscape"
   fill="none"
   height="24"
   viewBox="0 0 24 24"
   width="24"
   version="1.1"
   id="svg4"
   sodipodi:docname="gotop.svg"
   inkscape:version="0.92.5 (2060ec1f9f, 2020-04-08)">
  <metadata
     id="metadata10">
    <rdf:RDF>
      <cc:Work
         rdf:about="">
        <dc:format>image/svg+xml</dc:format>
        <dc:type
           rdf:resource="http://purl.org/dc/dcmitype/StillImage" />
      </cc:Work>
    </rdf:RDF>
  </metadata>
  <defs
     id="defs8" />
  <sodipodi:namedview
     pagecolor="#ffffff"
     bordercolor="#666666"
     borderopacity="1"
     objecttolerance="10"
     gridtolerance="10"
     guidetolerance="10"
     inkscape:pageopacity="0"
     inkscape:pageshadow="2"
     inkscape:window-width="2560"
     inkscape:window-height="1364"
     id="namedview6"
     showgrid="false"
     inkscape:zoom="14.363107"
     inkscape:cx="-31.610572"
     inkscape:cy="22.23523"
     inkscape:window-x="0"
     inkscape:window-y="26"
     inkscape:window-maximized="1"
     inkscape:current-layer="svg4" />
  <path
     d="M9 11L12 8M12 8L15 11M12 8L12 16M12 3C16.9706 3 21 7.02944 21 12C21 16.9706 16.9706 21 12 21C7.02944 21 3 16.9706 3 12C3 7.02944 7.02944 3 12 3Z"
     id="path2"
     style="stroke:#afafaf;stroke-opacity:1"
     stroke-linejoin="round"
     stroke-linecap="round"
     stroke-width="2"
     stroke="#4A5568" />
  <path
     style="opacity:1;fill:#ffffff;fill-opacity:1;stroke:#56afaf;stroke-width:0.01392456;stroke-miterlimit:4;stroke-dasharray:none;stroke-opacity:1;paint-order:stroke fill markers"
     d="M 10.556857,19.839077 C 6.315077,19.072703 3.447643,14.985099 4.1431954,10.696231 4.8096047,6.5870622 8.6849763,3.6154259 12.781687,4.072232 c 1.906129,0.2125438 3.532702,0.9836824 4.837087,2.2932035 4.185652,4.2021345 2.512991,11.3193155 -3.101089,13.1951535 -1.153471,0.385411 -2.748359,0.497548 -3.960828,0.278488 z m 2.033611,-3.001741 c 0.424438,-0.310957 0.426961,-0.331643 0.427081,-3.500009 l 1.07e-4,-2.888103 0.713634,0.704774 c 0.797466,0.787567 0.904737,0.859362 1.283446,0.858991 0.713538,-6.97e-4 1.22599,-0.827958 0.896895,-1.447871 -0.05489,-0.103403 -0.849599,-0.9354723 -1.76601,-1.8490431 -1.614854,-1.6098473 -1.67602,-1.6621444 -1.984735,-1.696941 -0.175192,-0.019747 -0.406054,-0.013936 -0.513027,0.012912 -0.203304,0.051026 -3.063201,2.8241064 -3.4426132,3.3381071 -0.3915874,0.530495 -0.2257982,1.237518 0.3613858,1.541163 0.2338306,0.120918 0.6400034,0.132683 0.8526209,0.0247 0.083641,-0.04248 0.4732096,-0.394387 0.8657085,-0.782014 l 0.713634,-0.704774 v 2.930023 2.930025 l 0.158039,0.23657 c 0.316276,0.473436 0.996687,0.611762 1.433834,0.291494 z"
     id="path838"
     inkscape:connector-curvature="0" />
</svg>
