<?xml version="1.0" encoding="UTF-8" standalone="no"?>
<!-- Created with Inkscape (http://www.inkscape.org/) -->

<svg
   xmlns:dc="http://purl.org/dc/elements/1.1/"
   xmlns:cc="http://creativecommons.org/ns#"
   xmlns:rdf="http://www.w3.org/1999/02/22-rdf-syntax-ns#"
   xmlns:svg="http://www.w3.org/2000/svg"
   xmlns="http://www.w3.org/2000/svg"
   xmlns:sodipodi="http://sodipodi.sourceforge.net/DTD/sodipodi-0.dtd"
   xmlns:inkscape="http://www.inkscape.org/namespaces/inkscape"
   width="52.91666mm"
   height="9.1622009mm"
   viewBox="0 0 52.91666 9.1622009"
   version="1.1"
   id="svg954"
   sodipodi:docname="logo.svg"
   inkscape:version="0.92.5 (2060ec1f9f, 2020-04-08)">
  <defs
     id="defs948" />
  <sodipodi:namedview
     id="base"
     pagecolor="#ffffff"
     bordercolor="#666666"
     borderopacity="1.0"
     inkscape:pageopacity="0.0"
     inkscape:pageshadow="2"
     inkscape:zoom="5.6"
     inkscape:cx="90.790188"
     inkscape:cy="16.866471"
     inkscape:document-units="mm"
     inkscape:current-layer="g131"
     showgrid="false"
     fit-margin-top="0"
     inkscape:window-width="2560"
     inkscape:window-height="1364"
     inkscape:window-x="0"
     inkscape:window-y="26"
     inkscape:window-maximized="1"
     fit-margin-left="0"
     fit-margin-right="0"
     fit-margin-bottom="0" />
  <metadata
     id="metadata951">
    <rdf:RDF>
      <cc:Work
         rdf:about="">
        <dc:format>image/svg+xml</dc:format>
        <dc:type
           rdf:resource="http://purl.org/dc/dcmitype/StillImage" />
        <dc:title></dc:title>
      </cc:Work>
    </rdf:RDF>
  </metadata>
  <g
     inkscape:label="Layer 1"
     inkscape:groupmode="layer"
     id="layer1"
     transform="translate(-20.533561,-228.63541)">
    <g
       style="display:inline;opacity:1;fill-rule:evenodd;stroke-width:28.22200012;stroke-linejoin:round"
       id="g165"
       transform="matrix(0.00518694,0,0,0.00518694,20.534371,229.95915)">
      <g
         id="g137"
         style="display:inline">
        <g
           id="g946">
          <path
             d="m 789,1178.9211 c -25,41 -52,43 -83,6 -147,-177 -138,-356 26,-537 v 0 c 0,0 0,0 0,0 2,-2 5,-4 7,-5 3,0 5,0 8,0 3,1 5,2 7,4 0,0 0,0 0,0 148,153 159,330 35,532 z"
             id="path145"
             inkscape:connector-curvature="0"
             style="display:inline;fill:#81b64b;fill-rule:evenodd;stroke:none;stroke-width:28.22200012;stroke-linejoin:round" />
          <g
             id="g131">
            <path
               d="m 778,-234.0789 c 135,179.999996 131,358 -14,534 -2,3 -4,5 -7,6 -4,3 -9,4 -13,4 -5,0 -10,-1 -14,-4 -2,-1 -4,-3 -6,-5 -158,-169 -161,-348.000004 -10,-536 22,-27 43,-27 64,1 z"
               id="path133"
               inkscape:connector-curvature="0"
               style="fill:#81b64b;stroke:none" />
            <path
               d="m 207,-23.078904 c -1,-17 7,-25 23,-24 246,13 379,144.000002 398,394.000004 1,16 -7,24 -22,24 -229,-6 -375,-160 -399,-394.000004 z"
               id="path135"
               inkscape:connector-curvature="0"
               style="fill:#81b64b;stroke:none" />
            <path
               d="m 9,466.9211 c 182,-171 389,-154 562,2 11,10 10,20 -1,29 -180,154 -367,155 -559,4 -14,-11 -15,-23 -2,-35 z"
               id="path137"
               inkscape:connector-curvature="0"
               style="fill:#81b64b;stroke:none" />
            <path
               d="m 1472,467.9211 c 13,11 12,22 0,33 -180,151 -366,151 -558,0 -12,-10 -13,-21 -2,-32 166,-168 379,-162 560,-1 z"
               id="path139"
               inkscape:connector-curvature="0"
               style="fill:#81b64b;stroke:none" />
            <path
               d="m 239,1006.9211 c -19,1 -27,-7 -26,-25 15,-241 145,-370 388,-388 17,-1 27,7 27,24 12,224 -175,374 -389,389 z"
               id="path141"
               inkscape:connector-curvature="0"
               style="fill:#81b64b;stroke:none" />
            <path
               d="m 849,614.9211 c -1,0 -1,-1 -1,-2 0,-3 1,-7 3,-10 2,-3 4,-5 7,-7 3,-2 7,-2 10,-2 1,0 1,0 1,0 247,9 379,140 397,393 1,16 -7,24 -23,23 -229,-12 -376,-156 -394,-395 z"
               id="path143"
               inkscape:connector-curvature="0"
               style="fill:#81b64b;stroke:none" />
            <path
               d="m 869,358.9211 c -6,-10 -1,-72 9,-118 19,-93 67,-172.000002 137,-225.000002 45,-34.000002 110,-62.000002 177,-78.000002 27,-6 39,-6 48,1 12,10 13,20 10,63.0000001 -5,78.0000019 -23,141.0000039 -54,198.0000039 -9,16 -14,23 -37,50 -23,26 -29,32 -43,43 -56,42 -125,68 -207,79 -25,3 -34,0 -40,-13 z"
               id="path147"
               inkscape:connector-curvature="0"
               style="fill:#337398;stroke:none" />
            <g
               aria-label="СЕРВЕР"
               id="text155">
              <path
                 d="m 5143.4375,768.07153 q 44.8574,0 77.8408,-15.17236 32.9834,-15.83203 56.7315,-40.89941 24.4077,-25.06739 40.2397,-56.73145 15.832,-31.66406 26.3867,-63.98779 l 138.5303,63.98779 q -16.4917,50.13477 -43.5381,98.29053 -27.0464,48.15576 -67.9458,85.09717 -40.2397,36.9414 -96.3115,60.02978 -56.0718,22.42871 -131.9336,22.42871 -98.9502,0 -171.5137,-35.62207 -71.9038,-36.28174 -119.3999,-100.26953 -47.4961,-64.64746 -70.5844,-153.04297 -22.4288,-88.39551 -22.4288,-193.28271 0,-108.84522 22.4288,-196.58106 23.0883,-87.73584 69.2651,-149.084959 46.8364,-62.008789 118.0806,-94.9921873 71.2441,-33.6430667 167.5556,-33.6430667 74.5425,0 130.6143,19.130371 56.0718,19.1303715 96.3115,54.092774 40.8994,34.302734 67.2861,81.798828 27.0464,46.83643 42.2188,103.56787 l -140.5093,46.83643 q -7.2563,-29.68506 -23.0884,-56.73145 -15.832,-27.70605 -40.2397,-48.81543 -23.7481,-21.10937 -56.0718,-33.64306 -32.3237,-13.19336 -73.2231,-13.19336 -58.0508,0 -99.6099,23.08837 -41.5591,22.42872 -68.6055,64.64747 -26.3867,42.21875 -39.5801,101.58886 -12.5336,58.71045 -12.5336,131.9336 0,72.56347 12.5336,133.25293 13.1934,60.02978 40.2398,103.56787 27.0464,43.53808 69.2651,67.9458 42.2188,24.40771 101.5889,24.40771 z"
                 style="fill:#337398;stroke:none"
                 id="path4598"
                 inkscape:connector-curvature="0" />
              <path
                 d="M 5587.394,907.92114 V -21.551025 h 599.6382 V 128.85327 h -439.9985 v 233.52246 h 407.0151 v 150.4043 h -407.0151 v 244.73682 h 461.7676 v 150.40429 z"
                 style="fill:#337398;stroke:none"
                 id="path4600"
                 inkscape:connector-curvature="0" />
              <path
                 d="m 6953.5664,272.66089 q 0,60.02978 -16.4917,116.10156 -16.4917,55.41211 -50.7944,98.29053 -34.3028,42.87842 -87.0762,68.60547 -52.1138,25.06738 -124.0176,25.06738 H 6485.8618 V 907.92114 H 6326.2222 V -21.551025 h 342.3676 q 73.2232,0 126.6563,21.76904258 53.4331,21.10937542 88.3955,60.02978542 35.6221,38.92041 52.7734,93.013187 17.1514,54.09277 17.1514,119.3999 z m -160.959,3.29834 q 0,-71.90381 -35.622,-108.84522 -34.9625,-37.60107 -106.2066,-37.60107 h -164.917 V 430.9812 h 169.5347 q 35.6221,0 61.3491,-11.21435 25.7271,-11.21436 42.2188,-31.66407 17.1513,-20.4497 25.0673,-48.81543 8.5757,-29.02539 8.5757,-63.32812 z"
                 style="fill:#337398;stroke:none"
                 id="path4602"
                 inkscape:connector-curvature="0" />
              <path
                 d="m 7740.5503,642.73462 q 0,70.58447 -23.7481,121.37891 -23.0883,50.13476 -63.3281,82.45849 -40.2397,31.66406 -93.6728,46.83643 -53.4331,14.51269 -113.4629,14.51269 H 7065.0503 V -21.551025 h 348.9643 q 67.2862,0 120.0596,14.5126949 52.7735,13.8530274 89.0552,42.8784181 36.2817,29.025391 54.7524,73.223142 18.4707,43.53809 18.4707,102.90821 0,79.16015 -36.2817,133.91259 -35.6221,54.09278 -108.8452,73.22315 92.3535,13.19336 140.5093,71.24414 48.8154,57.39111 48.8154,152.3833 z M 7536.0532,238.35815 q 0,-62.66845 -32.9834,-89.05517 -32.3237,-26.38672 -96.9712,-26.38672 h -181.4087 v 230.22412 h 182.7281 q 67.2861,0 97.6308,-28.36572 31.0044,-29.02539 31.0044,-86.41651 z m 44.1978,389.20411 q 0,-36.94141 -11.874,-62.00879 -11.8741,-25.06739 -32.9834,-40.23975 -20.4498,-15.17236 -48.1558,-21.76904 -27.7061,-6.59668 -60.6895,-6.59668 h -201.8584 v 266.50586 h 208.4551 q 31.6641,0 58.0508,-5.93701 27.0464,-6.59668 46.8364,-21.76905 19.7901,-15.83203 31.0044,-42.21875 11.2144,-26.38672 11.2144,-65.96679 z"
                 style="fill:#337398;stroke:none"
                 id="path4604"
                 inkscape:connector-curvature="0" />
              <path
                 d="M 7864.5679,907.92114 V -21.551025 h 599.6382 V 128.85327 h -439.9986 v 233.52246 h 407.0152 v 150.4043 h -407.0152 v 244.73682 h 461.7676 v 150.40429 z"
                 style="fill:#337398;stroke:none"
                 id="path4606"
                 inkscape:connector-curvature="0" />
              <path
                 d="m 9230.7402,272.66089 q 0,60.02978 -16.4917,116.10156 -16.4917,55.41211 -50.7944,98.29053 -34.3027,42.87842 -87.0762,68.60547 -52.1137,25.06738 -124.0175,25.06738 H 8763.0356 V 907.92114 H 8603.396 V -21.551025 h 342.3677 q 73.2231,0 126.6562,21.76904258 53.4331,21.10937542 88.3955,60.02978542 35.6221,38.92041 52.7735,93.013187 17.1513,54.09277 17.1513,119.3999 z m -160.9589,3.29834 q 0,-71.90381 -35.6221,-108.84522 -34.9624,-37.60107 -106.2066,-37.60107 h -164.917 V 430.9812 h 169.5347 q 35.6221,0 61.3491,-11.21435 25.7271,-11.21436 42.2188,-31.66407 17.1514,-20.4497 25.0674,-48.81543 8.5757,-29.02539 8.5757,-63.32812 z"
                 style="fill:#337398;stroke:none"
                 id="path4608"
                 inkscape:connector-curvature="0" />
            </g>
            <g
               aria-label="АГРО"
               id="text163">
              <path
                 d="m 2264.9218,903.92114 -67.2862,-237.48047 h -290.2539 l -67.2861,237.48047 h -159.6397 l 277.7202,-929.472165 h 188.0054 L 2423.2421,903.92114 Z M 2086.8114,252.82886 q 0,0 -13.1934,-46.83643 -5.937,-23.08838 -10.5546,-42.21875 l -7.9161,-32.32373 q -2.6386,-12.53369 -2.6386,-13.85303 -0.6597,1.97901 -3.2984,14.5127 -2.6386,12.53369 -7.2563,31.66406 -4.6177,19.13037 -10.5547,42.21875 l -13.1934,46.83643 -75.2021,267.16552 h 219.0097 z"
                 style="fill:#3d9800;stroke:none"
                 id="path4611"
                 inkscape:connector-curvature="0" />
              <path
                 d="M 3095.4437,-25.551025 V 124.85327 h -395.1411 v 778.4082 H 2530.7679 V -25.551025 Z"
                 style="fill:#3d9800;stroke:none"
                 id="path4613"
                 inkscape:connector-curvature="0" />
              <path
                 d="m 3819.7592,268.66089 q 0,60.02978 -16.4917,116.10156 -16.4917,55.41211 -50.7945,98.29053 -34.3027,42.87842 -87.0761,68.60547 -52.1138,25.06738 -124.0176,25.06738 H 3352.0546 V 903.92114 H 3192.4149 V -25.551025 h 342.3677 q 73.2231,0 126.6562,21.7690426 53.4331,21.1093754 88.3956,60.0297854 35.622,38.92041 52.7734,93.013187 17.1514,54.09277 17.1514,119.3999 z m -160.959,3.29834 q 0,-71.90381 -35.6221,-108.84522 -34.9624,-37.60107 -106.2065,-37.60107 h -164.917 V 426.9812 h 169.5346 q 35.6221,0 61.3492,-11.21435 25.727,-11.21436 42.2187,-31.66407 17.1514,-20.4497 25.0674,-48.81543 8.5757,-29.02539 8.5757,-63.32812 z"
                 style="fill:#3d9800;stroke:none"
                 id="path4615"
                 inkscape:connector-curvature="0" />
              <path
                 d="m 4654.8988,434.89722 q 0,108.84521 -26.3867,197.90039 -26.3867,89.05517 -76.5215,152.3833 -49.4751,63.32812 -121.3789,97.63086 -71.2441,34.30273 -161.6187,34.30273 -95.6518,0 -167.5556,-35.62207 -71.9038,-36.28174 -120.0596,-100.26953 -48.1558,-64.64746 -72.5635,-153.04297 -23.748,-88.39551 -23.748,-193.28271 0,-108.84522 25.0674,-196.58106 25.0673,-87.73584 73.8828,-149.084959 49.4751,-62.008789 120.7192,-94.9921873 71.9038,-33.6430667 164.917,-33.6430667 93.0132,0 164.917,33.6430667 71.9038,33.6430663 120.7192,95.6518553 48.8155,62.008791 73.8829,149.744631 25.727,87.07617 25.727,195.26172 z m -162.938,0 q 0,-73.22315 -14.5127,-131.9336 -13.853,-59.37011 -42.2187,-101.58886 -27.7061,-42.21875 -69.2652,-64.64747 -41.559,-23.08837 -96.3115,-23.08837 -56.0718,0 -97.6308,23.08837 -41.5591,22.42872 -69.9249,64.64747 -28.3657,42.21875 -42.2187,101.58886 -13.853,58.71045 -13.853,131.9336 0,72.56347 13.853,133.25293 14.5127,60.02978 42.2187,103.56787 28.3658,43.53808 69.9249,67.9458 42.2187,24.40771 96.9711,24.40771 58.7105,0 100.2696,-24.40771 42.2187,-25.06738 69.2651,-68.60547 27.7061,-44.19775 40.2398,-104.22754 13.1933,-60.68945 13.1933,-131.93359 z"
                 style="fill:#3d9800;stroke:none"
                 id="path4617"
                 inkscape:connector-curvature="0" />
            </g>
            <g
               aria-label=".ru"
               id="text171">
              <path
                 d="m 9132.9672,758.552 h 134.2969 v 144.36914 h -134.2969 z"
                 style="fill:#68806e;stroke:none"
                 id="path4620"
                 inkscape:connector-curvature="0" />
              <path
                 d="m 9719.77,598.88794 q -17.5332,-8.20703 -35.0664,-11.9375 -17.1602,-4.10352 -34.6934,-4.10352 -51.4805,0 -79.459,33.20118 -27.6054,32.82812 -27.6054,94.38086 V 902.92114 H 9409.395 v -417.8125 h 133.5508 v 68.64063 q 25.7402,-41.03516 58.9414,-59.6875 33.5742,-19.02539 80.205,-19.02539 6.7149,0 14.5489,0.74609 7.834,0.37305 22.7558,2.23828 z"
                 style="fill:#68806e;stroke:none"
                 id="path4622"
                 inkscape:connector-curvature="0" />
              <path
                 d="M 9781.6958,740.27271 V 485.10864 h 134.2972 v 41.78125 q 0,33.94727 -0.373,85.42774 -0.373,51.10742 -0.373,68.26758 0,50.36132 2.611,72.74414 2.611,22.00976 8.953,32.08203 8.207,13.05664 21.264,20.14453 13.429,7.08789 30.59,7.08789 41.781,0 65.656,-32.08203 23.875,-32.08203 23.875,-89.15821 V 485.10864 h 133.551 v 417.8125 h -133.551 v -60.43359 q -30.217,36.55859 -64.164,54.0918 -33.574,17.16015 -74.237,17.16015 -72.3707,0 -110.4215,-44.39258 -37.6777,-44.39257 -37.6777,-129.07421 z"
                 style="fill:#68806e;stroke:none"
                 id="path4624"
                 inkscape:connector-curvature="0" />
            </g>
          </g>
          <g
             aria-label="российский агропромышленный сервер"
             style="fill:#337398;fill-opacity:1"
             id="text179">
            <path
               d="m 1721.8181,1409.0988 v 102.0937 h -31.7969 v -265.7187 h 31.7969 v 29.2187 q 9.9688,-17.1875 25.0938,-25.4375 15.2968,-8.4219 36.4375,-8.4219 35.0625,0 56.8906,27.8438 22,27.8437 22,73.2187 0,45.375 -22,73.2188 -21.8281,27.8437 -56.8906,27.8437 -21.1407,0 -36.4375,-8.25 -15.125,-8.4218 -25.0938,-25.6093 z m 107.5938,-67.2032 q 0,-34.8906 -14.4375,-54.6562 -14.2657,-19.9375 -39.3594,-19.9375 -25.0938,0 -39.5313,19.9375 -14.2656,19.7656 -14.2656,54.6562 0,34.8907 14.2656,54.8282 14.4375,19.7656 39.5313,19.7656 25.0937,0 39.3594,-19.7656 14.4375,-19.9375 14.4375,-54.8282 z"
               style="fill:#337398;fill-opacity:1;stroke:none"
               id="path4627"
               inkscape:connector-curvature="0" />
            <path
               d="m 1989.2556,1267.6456 q -25.4375,0 -40.2187,19.9375 -14.7813,19.7657 -14.7813,54.3125 0,34.5469 14.6094,54.4844 14.7812,19.7656 40.3906,19.7656 25.2656,0 40.0469,-19.9375 14.7812,-19.9375 14.7812,-54.3125 0,-34.2031 -14.7812,-54.1406 -14.7813,-20.1094 -40.0469,-20.1094 z m 0,-26.8125 q 41.25,0 64.7969,26.8125 23.5469,26.8125 23.5469,74.25 0,47.2657 -23.5469,74.25 -23.5469,26.8125 -64.7969,26.8125 -41.4219,0 -64.9687,-26.8125 -23.375,-26.9843 -23.375,-74.25 0,-47.4375 23.375,-74.25 23.5468,-26.8125 64.9687,-26.8125 z"
               style="fill:#337398;fill-opacity:1;stroke:none"
               id="path4629"
               inkscape:connector-curvature="0" />
            <path
               d="m 2268.5525,1252.8644 v 29.5625 q -13.4063,-7.3906 -26.9844,-11 -13.4062,-3.7813 -27.1562,-3.7813 -30.7657,0 -47.7813,19.5938 -17.0156,19.4219 -17.0156,54.6562 0,35.2344 17.0156,54.8282 17.0156,19.4218 47.7813,19.4218 13.75,0 27.1562,-3.6093 13.5781,-3.7813 26.9844,-11.1719 v 29.2187 q -13.2344,6.1875 -27.5,9.2813 -14.0938,3.0937 -30.0781,3.0937 -43.4844,0 -69.0938,-27.3281 -25.6094,-27.3281 -25.6094,-73.7344 0,-47.0937 25.7813,-74.0781 25.9531,-26.9844 70.9844,-26.9844 14.6093,0 28.5312,3.0938 13.9219,2.9219 26.9844,8.9375 z"
               style="fill:#337398;fill-opacity:1;stroke:none"
               id="path4631"
               inkscape:connector-curvature="0" />
            <path
               d="m 2462.0837,1252.8644 v 29.5625 q -13.4062,-7.3906 -26.9843,-11 -13.4063,-3.7813 -27.1563,-3.7813 -30.7656,0 -47.7812,19.5938 -17.0157,19.4219 -17.0157,54.6562 0,35.2344 17.0157,54.8282 17.0156,19.4218 47.7812,19.4218 13.75,0 27.1563,-3.6093 13.5781,-3.7813 26.9843,-11.1719 v 29.2187 q -13.2343,6.1875 -27.5,9.2813 -14.0937,3.0937 -30.0781,3.0937 -43.4844,0 -69.0937,-27.3281 -25.6094,-27.3281 -25.6094,-73.7344 0,-47.0937 25.7812,-74.0781 25.9532,-26.9844 70.9844,-26.9844 14.6094,0 28.5313,3.0938 13.9218,2.9219 26.9843,8.9375 z"
               style="fill:#337398;fill-opacity:1;stroke:none"
               id="path4633"
               inkscape:connector-curvature="0" />
            <path
               d="m 2680.7087,1245.4738 v 192.5 h -31.4531 v -154.5157 l -92.8125,154.5157 h -40.5625 v -192.5 h 31.4531 v 154.1718 l 92.6407,-154.1718 z"
               style="fill:#337398;fill-opacity:1;stroke:none"
               id="path4635"
               inkscape:connector-curvature="0" />
            <path
               d="m 2909.4744,1245.4738 v 192.5 h -31.4532 v -154.5157 l -92.8125,154.5157 h -40.5625 v -192.5 h 31.4532 v 154.1718 l 92.6406,-154.1718 z m -136.125,-74.9375 h 20.2812 q 1.8906,12.8906 10.1406,19.4218 8.4219,6.3594 23.375,6.3594 14.7813,0 23.0313,-6.3594 8.25,-6.3593 10.4844,-19.4218 h 20.2812 q -1.7187,24.5781 -15.2969,36.9531 -13.5781,12.375 -38.5,12.375 -24.9218,0 -38.5,-12.375 -13.5781,-12.375 -15.2968,-36.9531 z"
               style="fill:#337398;fill-opacity:1;stroke:none"
               id="path4637"
               inkscape:connector-curvature="0" />
            <path
               d="m 3113.1462,1252.8644 v 29.5625 q -13.4062,-7.3906 -26.9843,-11 -13.4063,-3.7813 -27.1563,-3.7813 -30.7656,0 -47.7812,19.5938 -17.0157,19.4219 -17.0157,54.6562 0,35.2344 17.0157,54.8282 17.0156,19.4218 47.7812,19.4218 13.75,0 27.1563,-3.6093 13.5781,-3.7813 26.9843,-11.1719 v 29.2187 q -13.2343,6.1875 -27.5,9.2813 -14.0937,3.0937 -30.0781,3.0937 -43.4844,0 -69.0937,-27.3281 -25.6094,-27.3281 -25.6094,-73.7344 0,-47.0937 25.7812,-74.0781 25.9532,-26.9844 70.9844,-26.9844 14.6094,0 28.5313,3.0938 13.9218,2.9219 26.9843,8.9375 z"
               style="fill:#337398;fill-opacity:1;stroke:none"
               id="path4639"
               inkscape:connector-curvature="0" />
            <path
               d="m 3166.9431,1245.4738 h 31.4531 v 90.4062 l 89.2032,-90.4062 h 38.8437 l -73.5625,74.4218 83.0156,118.0782 H 3300.49 l -68.2344,-97.1094 -33.8594,34.375 v 62.7344 h -31.4531 z"
               style="fill:#337398;fill-opacity:1;stroke:none"
               id="path4641"
               inkscape:connector-curvature="0" />
            <path
               d="m 3544.3806,1245.4738 v 192.5 h -31.4531 v -154.5157 l -92.8125,154.5157 h -40.5625 v -192.5 h 31.4531 v 154.1718 l 92.6406,-154.1718 z"
               style="fill:#337398;fill-opacity:1;stroke:none"
               id="path4643"
               inkscape:connector-curvature="0" />
            <path
               d="m 3773.1462,1245.4738 v 192.5 h -31.4531 v -154.5157 l -92.8125,154.5157 h -40.5625 v -192.5 h 31.4531 v 154.1718 l 92.6407,-154.1718 z m -136.125,-74.9375 h 20.2813 q 1.8906,12.8906 10.1406,19.4218 8.4219,6.3594 23.375,6.3594 14.7813,0 23.0313,-6.3594 8.25,-6.3593 10.4843,-19.4218 h 20.2813 q -1.7188,24.5781 -15.2969,36.9531 -13.5781,12.375 -38.5,12.375 -24.9219,0 -38.5,-12.375 -13.5781,-12.375 -15.2969,-36.9531 z"
               style="fill:#337398;fill-opacity:1;stroke:none"
               id="path4645"
               inkscape:connector-curvature="0" />
            <path
               d="m 4037.6619,1341.2081 q -38.3282,0 -53.1094,8.7657 -14.7813,8.7656 -14.7813,29.9062 0,16.8438 11,26.8125 11.1719,9.7969 30.25,9.7969 26.2969,0 42.1094,-18.5625 15.9844,-18.7344 15.9844,-49.6719 v -7.0469 z m 63.0781,-13.0625 v 109.8282 h -31.625 v -29.2188 q -10.8281,17.5313 -26.9844,25.9531 -16.1562,8.25 -39.5312,8.25 -29.5625,0 -47.0938,-16.5 -17.3594,-16.6718 -17.3594,-44.5156 0,-32.4844 21.6563,-48.9844 21.8281,-16.5 64.9687,-16.5 h 44.3438 v -3.0937 q 0,-21.8281 -14.4375,-33.6875 -14.2656,-12.0313 -40.2188,-12.0313 -16.5,0 -32.1406,3.9532 -15.6406,3.9531 -30.0781,11.8593 v -29.2187 q 17.3594,-6.7031 33.6875,-9.9688 16.3281,-3.4375 31.7969,-3.4375 41.7656,0 62.3906,21.6563 20.625,21.6562 20.625,65.6562 z"
               style="fill:#337398;fill-opacity:1;stroke:none"
               id="path4647"
               inkscape:connector-curvature="0" />
            <path
               d="m 4164.6775,1437.9738 v -192.5 h 135.7812 v 25.2656 h -103.9843 v 167.2344 z"
               style="fill:#337398;fill-opacity:1;stroke:none"
               id="path4649"
               inkscape:connector-curvature="0" />
            <path
               d="m 4381.4119,1409.0988 v 102.0937 h -31.7969 v -265.7187 h 31.7969 v 29.2187 q 9.9687,-17.1875 25.0937,-25.4375 15.2969,-8.4219 36.4375,-8.4219 35.0625,0 56.8906,27.8438 22,27.8437 22,73.2187 0,45.375 -22,73.2188 -21.8281,27.8437 -56.8906,27.8437 -21.1406,0 -36.4375,-8.25 -15.125,-8.4218 -25.0937,-25.6093 z m 107.5937,-67.2032 q 0,-34.8906 -14.4375,-54.6562 -14.2656,-19.9375 -39.3594,-19.9375 -25.0937,0 -39.5312,19.9375 -14.2656,19.7656 -14.2656,54.6562 0,34.8907 14.2656,54.8282 14.4375,19.7656 39.5312,19.7656 25.0938,0 39.3594,-19.7656 14.4375,-19.9375 14.4375,-54.8282 z"
               style="fill:#337398;fill-opacity:1;stroke:none"
               id="path4651"
               inkscape:connector-curvature="0" />
            <path
               d="m 4648.8494,1267.6456 q -25.4375,0 -40.2188,19.9375 -14.7812,19.7657 -14.7812,54.3125 0,34.5469 14.6093,54.4844 14.7813,19.7656 40.3907,19.7656 25.2656,0 40.0468,-19.9375 14.7813,-19.9375 14.7813,-54.3125 0,-34.2031 -14.7813,-54.1406 -14.7812,-20.1094 -40.0468,-20.1094 z m 0,-26.8125 q 41.25,0 64.7968,26.8125 23.5469,26.8125 23.5469,74.25 0,47.2657 -23.5469,74.25 -23.5468,26.8125 -64.7968,26.8125 -41.4219,0 -64.9688,-26.8125 -23.375,-26.9843 -23.375,-74.25 0,-47.4375 23.375,-74.25 23.5469,-26.8125 64.9688,-26.8125 z"
               style="fill:#337398;fill-opacity:1;stroke:none"
               id="path4653"
               inkscape:connector-curvature="0" />
            <path
               d="m 4954.615,1245.4738 v 192.5 h -31.7969 v -167.2344 h -102.6094 v 167.2344 h -31.7968 v -192.5 z"
               style="fill:#337398;fill-opacity:1;stroke:none"
               id="path4655"
               inkscape:connector-curvature="0" />
            <path
               d="m 5050.3494,1409.0988 v 102.0937 h -31.7969 v -265.7187 h 31.7969 v 29.2187 q 9.9687,-17.1875 25.0937,-25.4375 15.2969,-8.4219 36.4375,-8.4219 35.0625,0 56.8906,27.8438 22,27.8437 22,73.2187 0,45.375 -22,73.2188 -21.8281,27.8437 -56.8906,27.8437 -21.1406,0 -36.4375,-8.25 -15.125,-8.4218 -25.0937,-25.6093 z m 107.5937,-67.2032 q 0,-34.8906 -14.4375,-54.6562 -14.2656,-19.9375 -39.3594,-19.9375 -25.0937,0 -39.5312,19.9375 -14.2656,19.7656 -14.2656,54.6562 0,34.8907 14.2656,54.8282 14.4375,19.7656 39.5312,19.7656 25.0938,0 39.3594,-19.7656 14.4375,-19.9375 14.4375,-54.8282 z"
               style="fill:#337398;fill-opacity:1;stroke:none"
               id="path4657"
               inkscape:connector-curvature="0" />
            <path
               d="m 5317.7869,1267.6456 q -25.4375,0 -40.2188,19.9375 -14.7812,19.7657 -14.7812,54.3125 0,34.5469 14.6093,54.4844 14.7813,19.7656 40.3907,19.7656 25.2656,0 40.0468,-19.9375 14.7813,-19.9375 14.7813,-54.3125 0,-34.2031 -14.7813,-54.1406 -14.7812,-20.1094 -40.0468,-20.1094 z m 0,-26.8125 q 41.25,0 64.7968,26.8125 23.5469,26.8125 23.5469,74.25 0,47.2657 -23.5469,74.25 -23.5468,26.8125 -64.7968,26.8125 -41.4219,0 -64.9688,-26.8125 -23.375,-26.9843 -23.375,-74.25 0,-47.4375 23.375,-74.25 23.5469,-26.8125 64.9688,-26.8125 z"
               style="fill:#337398;fill-opacity:1;stroke:none"
               id="path4659"
               inkscape:connector-curvature="0" />
            <path
               d="m 5457.3494,1245.4738 h 46.2343 l 54.6563,128.9062 54.8281,-128.9062 h 45.8906 v 192.5 h -31.7968 v -162.25 l -53.1094,125.2968 h -31.625 l -53.2813,-125.2968 v 162.25 h -31.7968 z"
               style="fill:#337398;fill-opacity:1;stroke:none"
               id="path4661"
               inkscape:connector-curvature="0" />
            <path
               d="m 5905.9431,1245.4738 h 31.625 v 192.5 h -31.625 z m 15.8125,-4.6407 z m -77.8594,140.0782 q 0,-15.4688 -11.3437,-23.5469 -11.1719,-8.0781 -32.8281,-8.0781 h -45.0313 v 63.4218 h 45.0313 q 21.6562,0 32.8281,-8.0781 11.3437,-8.25 11.3437,-23.7187 z m -121,-135.4375 h 31.7969 v 78.5468 h 46.4063 q 36.7812,0 56.5468,14.0938 19.9375,13.9219 19.9375,42.7969 0,28.875 -19.9375,42.9687 -19.7656,14.0938 -56.5468,14.0938 h -78.2032 z"
               style="fill:#337398;fill-opacity:1;stroke:none"
               id="path4663"
               inkscape:connector-curvature="0" />
            <path
               d="m 6145.7087,1412.7081 h 81.4688 v -167.2343 h 31.7969 v 192.5 h -258.1563 v -192.5 h 31.7969 v 167.2343 h 81.2969 v -167.2343 h 31.7968 z"
               style="fill:#337398;fill-opacity:1;stroke:none"
               id="path4665"
               inkscape:connector-curvature="0" />
            <path
               d="m 6304.0056,1437.9738 v -26.2969 q 31.2813,-4.8125 40.9063,-26.4688 11.6875,-30.4218 11.6875,-108.2812 v -31.4531 h 130.1093 v 192.5 h -31.625 v -167.2344 h -66.8593 v 19.0781 q 0,74.25 -15.125,107.5938 -16.1563,35.5781 -69.0938,40.5625 z"
               style="fill:#337398;fill-opacity:1;stroke:none"
               id="path4667"
               inkscape:connector-curvature="0" />
            <path
               d="m 6713.7556,1333.8175 v 15.4688 h -145.4062 q 2.0625,32.6562 19.5937,49.8437 17.7031,17.0156 49.1563,17.0156 18.2187,0 35.2343,-4.4687 17.1875,-4.4688 34.0313,-13.4063 v 29.9063 q -17.0156,7.2187 -34.8906,11 -17.875,3.7812 -36.2657,3.7812 -46.0625,0 -73.0468,-26.8125 -26.8125,-26.8125 -26.8125,-72.5312 0,-47.2656 25.4375,-74.9375 25.6093,-27.8438 68.9218,-27.8438 38.8438,0 61.3594,25.0938 22.6875,24.9219 22.6875,67.8906 z m -31.625,-9.2812 q -0.3437,-25.9532 -14.6094,-41.4219 -14.0937,-15.4688 -37.4687,-15.4688 -26.4688,0 -42.4531,14.9532 -15.8125,14.9531 -18.2188,42.1093 z"
               style="fill:#337398;fill-opacity:1;stroke:none"
               id="path4669"
               inkscape:connector-curvature="0" />
            <path
               d="m 6764.4587,1245.4738 h 31.7969 v 78.5468 h 102.6094 v -78.5468 h 31.7969 v 192.5 h -31.7969 v -88.6875 h -102.6094 v 88.6875 h -31.7969 z"
               style="fill:#337398;fill-opacity:1;stroke:none"
               id="path4671"
               inkscape:connector-curvature="0" />
            <path
               d="m 6994.5994,1245.4738 h 31.7968 v 78.5468 h 102.6094 v -78.5468 h 31.7969 v 192.5 h -31.7969 v -88.6875 h -102.6094 v 88.6875 h -31.7968 z"
               style="fill:#337398;fill-opacity:1;stroke:none"
               id="path4673"
               inkscape:connector-curvature="0" />
            <path
               d="m 7407.7869,1245.4738 h 31.625 v 192.5 h -31.625 z m 15.8125,-4.6407 z m -77.8594,140.0782 q 0,-15.4688 -11.3438,-23.5469 -11.1718,-8.0781 -32.8281,-8.0781 h -45.0312 v 63.4218 h 45.0312 q 21.6563,0 32.8281,-8.0781 11.3438,-8.25 11.3438,-23.7187 z m -121,-135.4375 h 31.7969 v 78.5468 h 46.4062 q 36.7813,0 56.5469,14.0938 19.9375,13.9219 19.9375,42.7969 0,28.875 -19.9375,42.9687 -19.7656,14.0938 -56.5469,14.0938 H 7224.74 Z"
               style="fill:#337398;fill-opacity:1;stroke:none"
               id="path4675"
               inkscape:connector-curvature="0" />
            <path
               d="m 7667.49,1245.4738 v 192.5 h -31.4531 v -154.5157 l -92.8125,154.5157 h -40.5625 v -192.5 h 31.4531 v 154.1718 l 92.6406,-154.1718 z m -136.125,-74.9375 h 20.2812 q 1.8907,12.8906 10.1407,19.4218 8.4218,6.3594 23.375,6.3594 14.7812,0 23.0312,-6.3594 8.25,-6.3593 10.4844,-19.4218 h 20.2812 q -1.7187,24.5781 -15.2968,36.9531 -13.5782,12.375 -38.5,12.375 -24.9219,0 -38.5,-12.375 -13.5782,-12.375 -15.2969,-36.9531 z"
               style="fill:#337398;fill-opacity:1;stroke:none"
               id="path4677"
               inkscape:connector-curvature="0" />
            <path
               d="m 7983.0525,1252.8644 v 29.5625 q -13.4063,-7.3906 -26.9844,-11 -13.4062,-3.7813 -27.1562,-3.7813 -30.7657,0 -47.7813,19.5938 -17.0156,19.4219 -17.0156,54.6562 0,35.2344 17.0156,54.8282 17.0156,19.4218 47.7813,19.4218 13.75,0 27.1562,-3.6093 13.5781,-3.7813 26.9844,-11.1719 v 29.2187 q -13.2344,6.1875 -27.5,9.2813 -14.0938,3.0937 -30.0781,3.0937 -43.4844,0 -69.0938,-27.3281 -25.6094,-27.3281 -25.6094,-73.7344 0,-47.0937 25.7813,-74.0781 25.9531,-26.9844 70.9844,-26.9844 14.6093,0 28.5312,3.0938 13.9219,2.9219 26.9844,8.9375 z"
               style="fill:#337398;fill-opacity:1;stroke:none"
               id="path4679"
               inkscape:connector-curvature="0" />
            <path
               d="m 8202.7087,1333.8175 v 15.4688 h -145.4062 q 2.0625,32.6562 19.5937,49.8437 17.7032,17.0156 49.1563,17.0156 18.2187,0 35.2344,-4.4687 17.1875,-4.4688 34.0312,-13.4063 v 29.9063 q -17.0156,7.2187 -34.8906,11 -17.875,3.7812 -36.2656,3.7812 -46.0625,0 -73.0469,-26.8125 -26.8125,-26.8125 -26.8125,-72.5312 0,-47.2656 25.4375,-74.9375 25.6094,-27.8438 68.9219,-27.8438 38.8437,0 61.3593,25.0938 22.6875,24.9219 22.6875,67.8906 z m -31.625,-9.2812 q -0.3437,-25.9532 -14.6093,-41.4219 -14.0938,-15.4688 -37.4688,-15.4688 -26.4687,0 -42.4531,14.9532 -15.8125,14.9531 -18.2188,42.1093 z"
               style="fill:#337398;fill-opacity:1;stroke:none"
               id="path4681"
               inkscape:connector-curvature="0" />
            <path
               d="m 8285.2087,1409.0988 v 102.0937 h -31.7968 v -265.7187 h 31.7968 v 29.2187 q 9.9688,-17.1875 25.0938,-25.4375 15.2969,-8.4219 36.4375,-8.4219 35.0625,0 56.8906,27.8438 22,27.8437 22,73.2187 0,45.375 -22,73.2188 -21.8281,27.8437 -56.8906,27.8437 -21.1406,0 -36.4375,-8.25 -15.125,-8.4218 -25.0938,-25.6093 z m 107.5938,-67.2032 q 0,-34.8906 -14.4375,-54.6562 -14.2656,-19.9375 -39.3594,-19.9375 -25.0937,0 -39.5312,19.9375 -14.2657,19.7656 -14.2657,54.6562 0,34.8907 14.2657,54.8282 14.4375,19.7656 39.5312,19.7656 25.0938,0 39.3594,-19.7656 14.4375,-19.9375 14.4375,-54.8282 z"
               style="fill:#337398;fill-opacity:1;stroke:none"
               id="path4683"
               inkscape:connector-curvature="0" />
            <path
               d="m 8508.4744,1349.2863 v 63.4218 h 45.0312 q 21.6563,0 33,-8.0781 11.3438,-8.25 11.3438,-23.7187 0,-15.4688 -11.3438,-23.5469 -11.3437,-8.0781 -33,-8.0781 z m 0,-78.5469 v 53.2812 h 41.5937 q 17.875,0 29.2188,-7.0468 11.3437,-7.2188 11.3437,-19.9375 0,-12.7188 -11.3437,-19.4219 -11.3438,-6.875 -29.2188,-6.875 z m -31.625,-25.2656 h 75.2812 q 33.8594,0 52.0781,12.375 18.2188,12.375 18.2188,35.2343 0,17.7032 -9.2813,28.1875 -9.2812,10.3125 -27.5,12.8907 21.8282,4.125 33.8594,17.1875 12.0313,13.0625 12.0313,32.6562 0,25.7813 -19.9375,39.875 -19.7657,14.0938 -56.5469,14.0938 h -78.2031 z"
               style="fill:#337398;fill-opacity:1;stroke:none"
               id="path4685"
               inkscape:connector-curvature="0" />
            <path
               d="m 8850.1619,1333.8175 v 15.4688 h -145.4063 q 2.0625,32.6562 19.5938,49.8437 17.7031,17.0156 49.1562,17.0156 18.2188,0 35.2344,-4.4687 17.1875,-4.4688 34.0312,-13.4063 v 29.9063 q -17.0156,7.2187 -34.8906,11 -17.875,3.7812 -36.2656,3.7812 -46.0625,0 -73.0469,-26.8125 -26.8125,-26.8125 -26.8125,-72.5312 0,-47.2656 25.4375,-74.9375 25.6094,-27.8438 68.9219,-27.8438 38.8437,0 61.3594,25.0938 22.6875,24.9219 22.6875,67.8906 z m -31.625,-9.2812 q -0.3438,-25.9532 -14.6094,-41.4219 -14.0938,-15.4688 -37.4688,-15.4688 -26.4687,0 -42.4531,14.9532 -15.8125,14.9531 -18.2187,42.1093 z"
               style="fill:#337398;fill-opacity:1;stroke:none"
               id="path4687"
               inkscape:connector-curvature="0" />
            <path
               d="m 8932.6619,1409.0988 v 102.0937 h -31.7969 v -265.7187 h 31.7969 v 29.2187 q 9.9687,-17.1875 25.0937,-25.4375 15.2969,-8.4219 36.4375,-8.4219 35.0625,0 56.8906,27.8438 22,27.8437 22,73.2187 0,45.375 -22,73.2188 -21.8281,27.8437 -56.8906,27.8437 -21.1406,0 -36.4375,-8.25 -15.125,-8.4218 -25.0937,-25.6093 z m 107.5937,-67.2032 q 0,-34.8906 -14.4375,-54.6562 -14.2656,-19.9375 -39.3594,-19.9375 -25.0937,0 -39.5312,19.9375 -14.2656,19.7656 -14.2656,54.6562 0,34.8907 14.2656,54.8282 14.4375,19.7656 39.5312,19.7656 25.0938,0 39.3594,-19.7656 14.4375,-19.9375 14.4375,-54.8282 z"
               style="fill:#337398;fill-opacity:1;stroke:none"
               id="path4689"
               inkscape:connector-curvature="0" />
          </g>
        </g>
      </g>
    </g>
  </g>
</svg>
